<svg width="40" height="40" viewBox="0 0 40 40" fill="none" xmlns="http://www.w3.org/2000/svg">
<path d="M20 2.3999C10.2893 2.3999 2.40002 10.2892 2.40002 19.9999C2.40002 28.8152 8.90205 36.1106 17.3703 37.3827L18.2891 37.5218V23.653H14.1313V20.8374H18.2891V17.0983C18.2891 14.7959 18.8416 13.2794 19.7563 12.328C20.6709 11.3766 22.0224 10.8968 23.9031 10.8968C25.407 10.8968 25.992 10.9879 26.5485 11.0562V13.3608H24.5906C23.4798 13.3608 22.5684 13.9806 22.0953 14.8062C21.6223 15.6317 21.475 16.6174 21.475 17.6218V20.8358H26.3735L25.9375 23.6515H21.475V37.5437L22.3828 37.4202C30.9715 36.2554 37.6 28.9014 37.6 19.9999C37.6 10.2892 29.7108 2.3999 20 2.3999ZM20 3.9999C28.8461 3.9999 36 11.1539 36 19.9999C36 27.7837 30.4287 34.1853 23.075 35.6265V25.2515H27.3094L28.2391 19.2358H23.075V17.6218C23.075 16.7918 23.2269 16.0481 23.4828 15.6015C23.7388 15.1548 23.9855 14.9608 24.5907 14.9608H28.1485V9.60771L27.4547 9.51396C26.9749 9.44903 25.8794 9.29677 23.9032 9.29677C21.7407 9.29677 19.8845 9.88585 18.6032 11.2186C17.3218 12.5514 16.6891 14.536 16.6891 17.0983V19.2374H12.5313V25.253H16.6891V35.5765C9.45363 34.0438 4.00003 27.6995 4.00003 19.9999C4.00003 11.1539 11.154 3.9999 20 3.9999Z" fill="#DAD7CD"/>
</svg>
