<svg width="214" height="73" viewBox="0 0 214 73" fill="none" xmlns="http://www.w3.org/2000/svg">
<line y1="-1" x2="39.5528" y2="-1" transform="matrix(0.892088 -0.451861 0.554096 0.832453 1.875 20.2461)" stroke="#DAD7CD" stroke-width="2"/>
<line x1="2.875" y1="19.2532" x2="2.875" y2="54.5014" stroke="#DAD7CD" stroke-width="2"/>
<line y1="-1" x2="39.5528" y2="-1" transform="matrix(0.892088 0.451861 -0.554096 0.832453 1.875 54.5014)" stroke="#DAD7CD" stroke-width="2"/>
<line y1="-1" x2="39.5528" y2="-1" transform="matrix(0.892088 0.451861 -0.554096 0.832453 36.0215 2.37375)" stroke="#DAD7CD" stroke-width="2"/>
<line x1="71.1677" y1="19.2532" x2="71.1677" y2="55.4943" stroke="#DAD7CD" stroke-width="2"/>
<line y1="-1" x2="38.6015" y2="-1" transform="matrix(0.899328 -0.437274 0.538423 0.842675 37.1594 72.3737)" stroke="#DAD7CD" stroke-width="2"/>
<path d="M17.8099 31.6645C18.1616 29.7047 18.607 28.7079 20.6554 27.4446V22.2319L24.3546 25.2106C27.7323 24.0978 28.9443 24.0978 32.3221 25.2106L37.444 21.7354L37.1595 27.4446C38.7541 29.019 39.164 29.9464 39.1513 31.6645M15.5334 33.8985C17.8371 33.3351 19.3022 33.3389 22.0782 33.6503M17.5253 38.1184C18.8277 36.543 19.9435 35.9306 22.3627 35.1397M35.1676 33.6503C37.8657 33.1339 41.7123 33.8985 41.7123 33.8985M34.5985 35.1397C37.1548 35.7452 39.1513 38.1184 39.1513 38.1184M21.5091 37.1255C27.6502 40.3513 30.7352 40.1957 35.7367 37.1255M39.7204 29.4304C39.7204 29.4304 56.5091 29.4304 57.3627 29.4304C58.2164 29.4304 57.9318 47.0546 57.3627 47.0546C56.7936 47.0546 50.5334 47.0546 50.5334 47.0546C50.5334 47.0546 47.1188 53.5085 46.8343 53.012C46.5497 52.5156 46.2652 47.551 46.2652 47.551C46.2652 47.551 29.4765 48.0475 29.4765 47.551C29.4765 47.0546 29.4768 42.6344 29.4765 40.1042M28.6229 35.1397C29.7128 34.3018 30.236 33.6914 30.8993 32.1609C29.1216 31.2994 28.124 31.1889 26.3465 32.1609C26.8283 33.6645 27.2637 34.3691 28.6229 35.1397ZM40.2895 39.1113C41.1432 38.1184 43.6716 37.944 44.8424 39.1113C45.8669 40.1327 45.696 41.8418 44.8424 42.5865C43.9887 43.3312 41.1432 43.5794 40.2895 42.5865C39.4359 41.5936 39.4359 40.1042 40.2895 39.1113ZM49.1107 39.1113C49.9643 38.1184 52.4927 37.944 53.6635 39.1113C54.688 40.1327 54.5172 41.8418 53.6635 42.5865C52.8099 43.3312 49.9643 43.5794 49.1107 42.5865C48.257 41.5936 48.257 40.1042 49.1107 39.1113Z" stroke="#DAD7CD" stroke-width="2"/>
<path d="M72.2812 6.7175C72.377 6.84515 72.375 7.13787 72.375 7.29736C72.375 7.39111 72.375 7.48486 72.375 7.57861C72.375 7.83903 72.375 8.09944 72.375 8.35986C72.375 8.65095 72.375 8.94204 72.375 9.23312C72.375 9.30254 72.4062 9.47488 72.4062 9.31125C72.4062 9.18625 72.4062 9.06125 72.4062 8.93625" stroke="#588157" stroke-linecap="round"/>
<path d="M72.6875 18.1862C72.6875 18.5101 72.8125 18.7999 72.8125 19.1237C72.8125 19.6076 72.6875 19.2233 72.6875 18.9675C72.6875 18.8119 72.5625 18.2056 72.5625 18.6237C72.5625 18.8946 72.5625 19.1654 72.5625 19.4362" stroke="#588157" stroke-linecap="round"/>
<path d="M1.125 16.4362C1.125 18.0369 1.125 19.6376 1.125 21.2383C1.125 21.4869 1.12583 20.8784 1.12153 20.8182C1.10711 20.6163 1 20.4538 1 20.2453C1 19.839 1 19.4328 1 19.0265C1 18.5386 1.20437 18.0512 1.34375 17.589C1.43836 17.2753 1.5625 16.303 1.5625 16.6307C1.5625 17.4154 1.5625 18.2001 1.5625 18.9849C1.5625 19.7097 1.4375 20.4069 1.4375 21.1237" stroke="#588157" stroke-linecap="round"/>
<path d="M37.3125 1.49874C37.2962 1.36824 36.7989 1.1609 36.6875 1.06124C36.4282 0.829257 36.3125 1.3183 36.3125 1.49874" stroke="#DAD7CD" stroke-linecap="round"/>
<path d="M100.094 26.1562C103.042 26.1562 105.193 26.7344 106.547 27.8906C107.911 29.0365 108.594 30.6823 108.594 32.8281C108.594 33.7969 108.432 34.7188 108.109 35.5938C107.797 36.4583 107.286 37.224 106.578 37.8906C105.87 38.5469 104.938 39.0677 103.781 39.4531C102.635 39.8281 101.229 40.0156 99.5625 40.0156H96.7812V49H94.125V26.1562H100.094ZM99.8438 28.4219H96.7812V37.7344H99.2656C100.724 37.7344 101.938 37.5781 102.906 37.2656C103.885 36.9531 104.62 36.4479 105.109 35.75C105.599 35.0417 105.844 34.1042 105.844 32.9375C105.844 31.4167 105.359 30.2865 104.391 29.5469C103.422 28.7969 101.906 28.4219 99.8438 28.4219ZM119.578 31.5625C121.036 31.5625 122.286 31.8854 123.328 32.5312C124.37 33.1771 125.167 34.0833 125.719 35.25C126.271 36.4062 126.547 37.7604 126.547 39.3125V40.9219H114.719C114.75 42.9323 115.25 44.4635 116.219 45.5156C117.188 46.5677 118.552 47.0938 120.312 47.0938C121.396 47.0938 122.354 46.9948 123.188 46.7969C124.021 46.599 124.885 46.3073 125.781 45.9219V48.2031C124.917 48.5885 124.057 48.8698 123.203 49.0469C122.359 49.224 121.359 49.3125 120.203 49.3125C118.557 49.3125 117.12 48.9792 115.891 48.3125C114.672 47.6354 113.724 46.6458 113.047 45.3438C112.37 44.0417 112.031 42.4479 112.031 40.5625C112.031 38.7188 112.339 37.125 112.953 35.7812C113.578 34.4271 114.453 33.3854 115.578 32.6562C116.714 31.9271 118.047 31.5625 119.578 31.5625ZM119.547 33.6875C118.161 33.6875 117.057 34.1406 116.234 35.0469C115.411 35.9531 114.922 37.2188 114.766 38.8438H123.828C123.818 37.8229 123.656 36.9271 123.344 36.1562C123.042 35.375 122.578 34.7708 121.953 34.3438C121.328 33.9062 120.526 33.6875 119.547 33.6875ZM136.484 47.1875C136.911 47.1875 137.349 47.151 137.797 47.0781C138.245 47.0052 138.609 46.9167 138.891 46.8125V48.8281C138.589 48.9635 138.167 49.0781 137.625 49.1719C137.094 49.2656 136.573 49.3125 136.062 49.3125C135.156 49.3125 134.333 49.1562 133.594 48.8438C132.854 48.5208 132.26 47.9792 131.812 47.2188C131.375 46.4583 131.156 45.4062 131.156 44.0625V33.9062H128.719V32.6406L131.172 31.625L132.203 27.9062H133.766V31.875H138.781V33.9062H133.766V43.9844C133.766 45.0573 134.01 45.8594 134.5 46.3906C135 46.9219 135.661 47.1875 136.484 47.1875ZM142.75 49V26.1562H145.406V46.625H155.547V49H142.75ZM165.484 31.5938C167.526 31.5938 169.042 32.0521 170.031 32.9688C171.021 33.8854 171.516 35.349 171.516 37.3594V49H169.625L169.125 46.4688H169C168.521 47.0938 168.021 47.6198 167.5 48.0469C166.979 48.4635 166.375 48.7812 165.688 49C165.01 49.2083 164.177 49.3125 163.188 49.3125C162.146 49.3125 161.219 49.1302 160.406 48.7656C159.604 48.401 158.969 47.849 158.5 47.1094C158.042 46.3698 157.812 45.4323 157.812 44.2969C157.812 42.5885 158.49 41.276 159.844 40.3594C161.198 39.4427 163.26 38.9427 166.031 38.8594L168.984 38.7344V37.6875C168.984 36.2083 168.667 35.1719 168.031 34.5781C167.396 33.9844 166.5 33.6875 165.344 33.6875C164.448 33.6875 163.594 33.8177 162.781 34.0781C161.969 34.3385 161.198 34.6458 160.469 35L159.672 33.0312C160.443 32.6354 161.328 32.2969 162.328 32.0156C163.328 31.7344 164.38 31.5938 165.484 31.5938ZM168.953 40.5625L166.344 40.6719C164.208 40.7552 162.703 41.1042 161.828 41.7188C160.953 42.3333 160.516 43.2031 160.516 44.3281C160.516 45.3073 160.812 46.0312 161.406 46.5C162 46.9688 162.786 47.2031 163.766 47.2031C165.286 47.2031 166.531 46.7812 167.5 45.9375C168.469 45.0938 168.953 43.8281 168.953 42.1406V40.5625ZM184.969 31.5625C187 31.5625 188.536 32.0625 189.578 33.0625C190.62 34.0521 191.141 35.6458 191.141 37.8438V49H188.578V38.0156C188.578 36.5885 188.25 35.5208 187.594 34.8125C186.948 34.1042 185.953 33.75 184.609 33.75C182.714 33.75 181.38 34.2865 180.609 35.3594C179.839 36.4323 179.453 37.9896 179.453 40.0312V49H176.859V31.875H178.953L179.344 34.3438H179.484C179.849 33.7396 180.312 33.2344 180.875 32.8281C181.438 32.4115 182.068 32.099 182.766 31.8906C183.464 31.6719 184.198 31.5625 184.969 31.5625ZM202.578 49.3125C200.411 49.3125 198.693 48.5729 197.422 47.0938C196.161 45.6146 195.531 43.4167 195.531 40.5C195.531 37.5521 196.177 35.3281 197.469 33.8281C198.76 32.3177 200.479 31.5625 202.625 31.5625C203.531 31.5625 204.323 31.6823 205 31.9219C205.677 32.1615 206.26 32.4844 206.75 32.8906C207.24 33.2865 207.651 33.7396 207.984 34.25H208.172C208.13 33.9271 208.089 33.4844 208.047 32.9219C208.005 32.3594 207.984 31.901 207.984 31.5469V24.6875H210.578V49H208.484L208.094 46.5625H207.984C207.661 47.0729 207.25 47.5365 206.75 47.9531C206.26 48.3698 205.672 48.7031 204.984 48.9531C204.307 49.1927 203.505 49.3125 202.578 49.3125ZM202.984 47.1562C204.818 47.1562 206.115 46.6354 206.875 45.5938C207.635 44.5521 208.016 43.0052 208.016 40.9531V40.4844C208.016 38.3073 207.651 36.6354 206.922 35.4688C206.203 34.3021 204.891 33.7188 202.984 33.7188C201.391 33.7188 200.198 34.3333 199.406 35.5625C198.615 36.7812 198.219 38.4479 198.219 40.5625C198.219 42.6667 198.609 44.2917 199.391 45.4375C200.182 46.5833 201.38 47.1562 202.984 47.1562Z" fill="#DAD7CD"/>
</svg>
