<svg width="31" height="31" viewBox="0 0 31 31" fill="none" xmlns="http://www.w3.org/2000/svg">
<path d="M5.38327 0.800049C2.86679 0.800049 0.799936 2.86691 0.799936 5.38338V8.01684C0.793561 8.46764 1.0304 8.88694 1.41978 9.1142C1.80915 9.34146 2.29073 9.34146 2.68009 9.1142C3.06947 8.88694 3.30631 8.46764 3.29993 8.01684V5.38338C3.29993 4.21819 4.21808 3.30005 5.38327 3.30005H26.2166C27.3818 3.30005 28.2999 4.21819 28.2999 5.38338V16.6334C28.2935 17.0842 28.5304 17.5035 28.9198 17.7307C29.3091 17.958 29.7907 17.958 30.1801 17.7307C30.5695 17.5035 30.8063 17.0842 30.7999 16.6334V5.38338C30.7999 2.86691 28.7331 0.800049 26.2166 0.800049H5.38327ZM15.935 5.80167C13.0025 5.82167 10.7429 6.81498 9.21627 8.75414C7.87127 10.465 7.17664 12.8331 7.15247 15.8098C7.17581 18.769 7.87044 21.1359 9.21627 22.8459C10.7421 24.7851 13.003 25.7784 15.9513 25.7984C18.558 25.7809 20.4004 25.0919 21.9246 23.5686C23.9496 21.5453 23.8861 19.0072 23.2169 17.4472C22.7336 16.3205 21.8196 15.4088 20.5704 14.8105C20.5413 14.7955 20.5109 14.7823 20.4809 14.7681C20.2609 11.9515 18.636 10.3325 15.9643 10.315C14.3443 10.315 12.9939 11.0113 12.1606 12.2763C12.0673 12.418 12.1044 12.6085 12.2452 12.706L13.6352 13.6598C13.7044 13.7073 13.7896 13.7244 13.8712 13.7086C13.9529 13.6927 14.0272 13.6435 14.073 13.5735C14.5764 12.811 15.3796 12.6523 15.9871 12.6523C16.7254 12.6564 17.2738 12.861 17.618 13.261C17.8038 13.4768 17.9461 13.7591 18.0444 14.1025C17.4136 14.0266 16.7425 14.0088 16.0408 14.0488C13.4525 14.1979 11.7877 15.7313 11.9018 17.8655C11.9593 18.9538 12.5011 19.8913 13.4269 20.5038C14.1919 21.008 15.1746 21.258 16.1954 21.2005C17.5463 21.1263 18.6088 20.6067 19.3546 19.6559C19.8321 19.0484 20.1544 18.302 20.3361 17.3853C20.6877 17.6695 20.9459 18.0023 21.1075 18.3798C21.4867 19.2615 21.5066 20.7135 20.3133 21.9052C19.2349 22.9827 17.9273 23.4503 15.9464 23.4644C13.7448 23.4478 12.0864 22.7492 11.0164 21.3893C10.0006 20.0976 9.4747 18.2175 9.45554 15.8033C9.4747 13.3842 10.0006 11.5025 11.0164 10.2109C12.0864 8.85088 13.7449 8.15152 15.9415 8.13568C18.1624 8.15234 19.8518 8.85552 20.9643 10.2255C21.5085 10.8955 21.9254 11.7441 22.2029 12.7499C22.2488 12.9149 22.4204 13.0122 22.5854 12.9697L24.2146 12.5351C24.2955 12.5143 24.3634 12.4603 24.4051 12.3886C24.4459 12.3153 24.456 12.2302 24.4344 12.1494C24.0752 10.8285 23.5051 9.68202 22.7384 8.73952C21.1701 6.81035 18.8875 5.82167 15.935 5.80167ZM2.0304 11.5357C1.34069 11.5465 0.790036 12.1139 0.799936 12.8036V26.2167C0.799936 28.7332 2.86679 30.8 5.38327 30.8H26.2166C28.7331 30.8 30.7999 28.7332 30.7999 26.2167V23.1226C30.8063 22.6718 30.5695 22.2525 30.1801 22.0253C29.7907 21.798 29.3091 21.798 28.9198 22.0253C28.5304 22.2525 28.2935 22.6718 28.2999 23.1226V26.2167C28.2999 27.3819 27.3818 28.3 26.2166 28.3H5.38327C4.21808 28.3 3.29993 27.3819 3.29993 26.2167V12.8036C3.30478 12.4656 3.17253 12.14 2.93334 11.9011C2.69415 11.6623 2.36841 11.5304 2.0304 11.5357ZM16.7358 16.3616C17.2333 16.3616 17.7077 16.4004 18.1502 16.4788C17.9135 18.4904 16.9701 18.8197 16.0685 18.8697C15.4502 18.8939 14.877 18.7394 14.5337 18.4319C14.3245 18.2444 14.2109 18.011 14.1967 17.7385C14.1651 17.1377 14.6661 16.4653 16.1694 16.3778C16.3611 16.367 16.55 16.3616 16.7358 16.3616Z" fill="#DAD7CD"/>
</svg>
