<svg width="34" height="34" viewBox="0 0 34 34" fill="none" xmlns="http://www.w3.org/2000/svg">
<path d="M4 0C1.79966 0 0 1.79966 0 4V29.6C0 31.8003 1.79966 33.6 4 33.6H29.6C31.8003 33.6 33.6 31.8003 33.6 29.6V4C33.6 1.79966 31.8003 0 29.6 0H4ZM4 1.6H29.6C30.9373 1.6 32 2.66274 32 4V29.6C32 30.9373 30.9373 32 29.6 32H4C2.66274 32 1.6 30.9373 1.6 29.6V4C1.6 2.66274 2.66274 1.6 4 1.6ZM17.6344 4.8C17.1932 4.80004 16.8353 5.15724 16.8344 5.59844C16.8344 5.59844 16.8256 9.49862 16.8172 13.4078C16.813 15.3624 16.8078 17.319 16.8047 18.7922C16.8015 20.2654 16.8 21.1975 16.8 21.275C16.8 22.7272 15.4811 23.9141 13.9781 23.9141C12.4871 23.9141 11.2969 22.7223 11.2969 21.2313C11.2969 19.7402 12.4871 18.55 13.9781 18.55C14.0286 18.55 14.1305 18.5666 14.3047 18.5875C14.532 18.6148 14.7601 18.5433 14.9313 18.3913C15.1024 18.2392 15.2003 18.0211 15.2 17.7922V14.4313C15.2 14.0089 14.8716 13.6593 14.45 13.6328C14.3253 13.625 14.1685 13.6094 13.9781 13.6094C9.77851 13.6094 6.35626 17.0316 6.35626 21.2313C6.35626 25.4309 9.77852 28.8531 13.9781 28.8531C18.1776 28.8531 21.6 25.4309 21.6 21.2313V13.9922C22.7637 14.9229 24.214 15.5125 25.8156 15.5125C26.0341 15.5125 26.2418 15.4996 26.4406 15.4813C26.8523 15.4433 27.1673 15.0978 27.1672 14.6844V10.9484C27.1674 10.5289 26.8435 10.1804 26.425 10.15C23.9093 9.96952 21.9039 8.00978 21.6422 5.51719C21.5998 5.10979 21.2565 4.80024 20.8469 4.80001L17.6344 4.8ZM18.4328 6.4H20.2578C20.8392 9.03896 22.9014 11.0515 25.5672 11.5562V13.8484C23.8561 13.7615 22.3532 12.908 21.4688 11.5625C21.2745 11.2668 20.9091 11.1338 20.5702 11.2355C20.2313 11.3371 19.9994 11.6493 20 12.0031V21.2312C20 24.566 17.313 27.2531 13.9781 27.2531C10.6433 27.2531 7.95626 24.566 7.95626 21.2312C7.95626 18.0308 10.4529 15.4905 13.6 15.2859V17.0266C11.4291 17.2286 9.69688 19.0098 9.69688 21.2312C9.69688 23.5866 11.6228 25.5141 13.9781 25.5141C16.3215 25.5141 18.4 23.6692 18.4 21.275C18.4 21.3141 18.4015 20.2685 18.4047 18.7953C18.4078 17.3222 18.413 15.3655 18.4172 13.4109C18.4247 9.90142 18.4314 7.07936 18.4328 6.4Z" fill="#DAD7CD"/>
</svg>
