<svg width="40" height="40" viewBox="0 0 40 40" fill="none" xmlns="http://www.w3.org/2000/svg">
<g clip-path="url(#clip0_13_283)">
<path d="M27.375 4.375C22.5906 4.375 18.7 8.26562 18.7 13.05C18.7 13.3375 18.7718 13.6188 18.8 13.9C12.8843 13.3344 7.6531 10.4844 4.09997 6.125C3.93435 5.91562 3.6781 5.80313 3.40935 5.82187C3.14372 5.84062 2.90622 5.99374 2.77497 6.225C2.0281 7.50938 1.59997 8.9875 1.59997 10.575C1.59997 12.4969 2.28748 14.2562 3.34997 15.7C3.14372 15.6094 2.91872 15.5594 2.72497 15.45C2.4781 15.3188 2.18122 15.325 1.9406 15.4688C1.69997 15.6125 1.55309 15.8719 1.54997 16.15V16.25C1.54997 19.1969 3.07497 21.7562 5.32497 23.325C5.29997 23.3219 5.27497 23.3312 5.24997 23.325C4.97497 23.2781 4.69684 23.375 4.51248 23.5844C4.3281 23.7938 4.26872 24.0844 4.34998 24.35C5.24373 27.1281 7.52498 29.25 10.35 30.025C8.09998 31.3625 5.4906 32.15 2.67498 32.15C2.0656 32.15 1.48123 32.1188 0.899979 32.05C0.524979 32 0.165603 32.2188 0.0406031 32.575C-0.0875249 32.9312 0.0531071 33.3281 0.374979 33.525C3.98436 35.8406 8.26873 37.2 12.875 37.2C20.3406 37.2 26.1969 34.0812 30.125 29.625C34.0531 25.1688 36.1 19.3812 36.1 13.975C36.1 13.7469 36.0812 13.525 36.075 13.3C37.5406 12.1781 38.85 10.8625 39.875 9.325C40.0781 9.02813 40.0562 8.63125 39.8219 8.35625C39.5906 8.08125 39.2 7.99687 38.875 8.15C38.4625 8.33438 37.9812 8.35313 37.55 8.5C38.1187 7.74062 38.6062 6.92187 38.9 6C39 5.68438 38.8906 5.3375 38.6312 5.13125C38.3719 4.92812 38.0094 4.90312 37.725 5.075C36.3594 5.88438 34.8469 6.45313 33.25 6.8C31.7 5.35 29.6594 4.375 27.375 4.375ZM27.375 5.975C29.4156 5.975 31.2594 6.84687 32.55 8.225C32.7437 8.425 33.0281 8.50938 33.3 8.45C34.3437 8.24375 35.3344 7.94062 36.3 7.55C35.7437 8.3 35.0562 8.94062 34.25 9.425C33.8843 9.60313 33.7125 10.025 33.8468 10.4094C33.9781 10.7906 34.3781 11.0125 34.775 10.925C35.575 10.8281 36.2875 10.5031 37.05 10.3C36.3656 11.0406 35.6156 11.7094 34.8 12.3C34.5781 12.4625 34.4562 12.725 34.475 13C34.4875 13.325 34.5 13.6469 34.5 13.975C34.5 18.975 32.5812 24.4031 28.925 28.55C25.2687 32.6969 19.9 35.6 12.875 35.6C9.68435 35.6 6.67184 34.8938 3.94997 33.65C7.32497 33.3906 10.4375 32.1969 12.95 30.225C13.2125 30.0156 13.3156 29.6656 13.2093 29.3469C13.1031 29.0281 12.8093 28.8094 12.475 28.8C9.83748 28.7531 7.6281 27.2188 6.44997 25.05C6.49372 25.05 6.53122 25.05 6.57497 25.05C7.3656 25.05 8.14684 24.95 8.87497 24.75C9.22497 24.6469 9.4656 24.3219 9.4531 23.9562C9.4406 23.5906 9.18123 23.2781 8.82497 23.2C5.9781 22.625 3.84372 20.3062 3.34997 17.425C4.15622 17.7031 4.98122 17.9219 5.87497 17.95C6.2406 17.9719 6.57184 17.7438 6.68435 17.3969C6.79685 17.05 6.65935 16.6687 6.34997 16.475C4.44997 15.2031 3.19997 13.0375 3.19997 10.575C3.19997 9.6625 3.43748 8.825 3.74997 8.025C7.74997 12.4156 13.35 15.3312 19.675 15.65C19.925 15.6625 20.1687 15.5594 20.3312 15.3688C20.4937 15.175 20.5562 14.9188 20.5 14.675C20.3781 14.1562 20.3 13.6062 20.3 13.05C20.3 9.13125 23.4562 5.975 27.375 5.975Z" fill="#DAD7CD"/>
</g>
<defs>
<clipPath id="clip0_13_283">
<rect width="40" height="40" fill="white"/>
</clipPath>
</defs>
</svg>
