<svg width="34" height="28" viewBox="0 0 34 28" fill="none" xmlns="http://www.w3.org/2000/svg">
<path d="M17 0.666748C17 0.666748 6.57596 0.666698 3.97596 1.36337C2.54096 1.7467 1.41332 2.876 1.02999 4.30933C0.333324 6.90933 0.333374 14.0001 0.333374 14.0001C0.333374 14.0001 0.333324 21.0908 1.02999 23.6908C1.41332 25.1258 2.54263 26.2535 3.97596 26.6368C6.57596 27.3335 17 27.3334 17 27.3334C17 27.3334 27.4241 27.3335 30.0241 26.6368C31.4575 26.2535 32.5868 25.1242 32.9701 23.6908C33.6668 21.0908 33.6667 14.0001 33.6667 14.0001C33.6667 14.0001 33.6668 6.90933 32.9701 4.30933C32.5868 2.876 31.4575 1.7467 30.0241 1.36337C27.4241 0.666698 17 0.666748 17 0.666748ZM17 4.00008C21.8034 4.00008 27.8182 4.22277 29.1615 4.58277C29.4432 4.65777 29.6741 4.88863 29.7507 5.17197C30.1524 6.66863 30.3334 11.2368 30.3334 14.0001C30.3334 16.7634 30.1524 21.3299 29.7507 22.8282C29.6757 23.1099 29.4449 23.3408 29.1615 23.4174C27.8199 23.7774 21.8034 24.0001 17.0001 24.0001C12.1984 24.0001 6.18361 23.7774 4.83861 23.4174C4.55694 23.3424 4.32608 23.1116 4.24941 22.8282C3.84774 21.3316 3.66673 16.7634 3.66673 14.0001C3.66673 11.2368 3.84774 6.66873 4.24941 5.16873C4.32441 4.88873 4.55527 4.6578 4.83861 4.5828C6.18028 4.2228 12.1967 4.00008 17 4.00008ZM13.6667 8.22535V19.7748L23.6667 14.0001L13.6667 8.22535Z" fill="#DAD7CD"/>
</svg>
